<svg xmlns="http://www.w3.org/2000/svg" version="1.1"
width="1940.11"
height="639.8613888888889"
viewBox="-170.0 -170.19074074074075 1940.11 639.8613888888889"
transform="matrix(1 0 0 -1 0 0)">
<line x1="0.0" y1="0.0" x2="400.0" y2="0.0" stroke="#D5DBF8" stroke-width="4.47213595499958"/>

	<line x1="400.0" y1="0.0" x2="800.0" y2="0.0" stroke="#D5DBF8" stroke-width="4.47213595499958"/>

	<line x1="800.0" y1="0.0" x2="1200.0" y2="0.0" stroke="#D5DBF8" stroke-width="4.47213595499958"/>

	<line x1="1200.0" y1="0.0" x2="1600.0" y2="0.0" stroke="#D5DBF8" stroke-width="4.47213595499958"/>

	<line x1="400.0" y1="300.0" x2="800.0" y2="300.0" stroke="#D5DBF8" stroke-width="4.47213595499958"/>

	<line x1="800.0" y1="300.0" x2="1200.0" y2="300.0" stroke="#D5DBF8" stroke-width="4.47213595499958"/>

	<line x1="400.0" y1="0.0" x2="400.0" y2="300.0" stroke="#D5DBF8" stroke-width="3.872983346207417"/>

	<line x1="800.0" y1="0.0" x2="800.0" y2="300.0" stroke="#D5DBF8" stroke-width="3.872983346207417"/>

	<line x1="1200.0" y1="0.0" x2="1200.0" y2="300.0" stroke="#D5DBF8" stroke-width="3.872983346207417"/>

	<line x1="0.0" y1="0.0" x2="400.0" y2="300.0" stroke="#D5DBF8" stroke-width="5.477225575051661"/>

	<line x1="400.0" y1="300.0" x2="800.0" y2="0.0" stroke="#D5DBF8" stroke-width="5.477225575051661"/>

	<line x1="800.0" y1="0.0" x2="1200.0" y2="300.0" stroke="#D5DBF8" stroke-width="5.477225575051661"/>

	<line x1="1200.0" y1="300.0" x2="1600.0" y2="0.0" stroke="#D5DBF8" stroke-width="5.477225575051661"/>

	<line x1="0.0" y1="0.0" x2="407.8125" y2="-37.15277777777783" stroke="#6a83fc" stroke-width="4.47213595499958"/>

	<line x1="407.8125" y1="-37.15277777777783" x2="815.625" y2="-47.685185185185254" stroke="#6a83fc" stroke-width="4.47213595499958"/>

	<line x1="815.625" y1="-47.685185185185254" x2="1221.5625" y2="-34.65277777777783" stroke="#6a83fc" stroke-width="4.47213595499958"/>

	<line x1="1221.5625" y1="-34.65277777777783" x2="1627.5" y2="0.0" stroke="#6a83fc" stroke-width="4.47213595499958"/>

	<line x1="422.5748697916667" y1="262.8472222222222" x2="816.533203125" y2="249.81481481481472" stroke="#fb877c" stroke-width="4.47213595499958"/>

	<line x1="816.533203125" y1="249.81481481481472" x2="1209.2415364583333" y2="265.3472222222222" stroke="#fb877c" stroke-width="4.47213595499958"/>

	<line x1="407.8125" y1="-37.15277777777783" x2="422.5748697916667" y2="262.8472222222222" stroke="#6a83fc" stroke-width="3.872983346207417"/>

	<line x1="815.625" y1="-47.685185185185254" x2="816.533203125" y2="249.81481481481472" stroke="#fb877c" stroke-width="3.872983346207417"/>

	<line x1="1221.5625" y1="-34.65277777777783" x2="1209.2415364583333" y2="265.3472222222222" stroke="#6a83fc" stroke-width="3.872983346207417"/>

	<line x1="0.0" y1="0.0" x2="422.5748697916667" y2="262.8472222222222" stroke="#fb877c" stroke-width="5.477225575051661"/>

	<line x1="422.5748697916667" y1="262.8472222222222" x2="815.625" y2="-47.685185185185254" stroke="#6a83fc" stroke-width="5.477225575051661"/>

	<line x1="815.625" y1="-47.685185185185254" x2="1209.2415364583333" y2="265.3472222222222" stroke="#6a83fc" stroke-width="5.477225575051661"/>

	<line x1="1209.2415364583333" y1="265.3472222222222" x2="1627.5" y2="0.0" stroke="#fb877c" stroke-width="5.477225575051661"/>

	<text x="204.81351872688293" y="-8.617630760627126" dx="0" dy="0" fill="#6a83fc" transform="matrix(0.9958758128261788 -0.09072687268829319 -0.09072687268829319 -0.9958758128261788 0.06283859806446979 1.3823692393727143)" font-size="20px" font-family="sans-serif">
    σ = 781.5951
</text>
	<text x="611.9769298384762" y="-32.422314878508104" dx="0" dy="0" fill="#6a83fc" transform="matrix(0.9996666602973436 -0.02581798384760832 -0.02581798384760832 -0.9996666602973436 -0.63308259401048 -49.03381162253647)" font-size="20px" font-family="sans-serif">
    σ = 781.2777
</text>
	<text x="1018.2728706438407" y="-31.174130985411534" dx="0" dy="0" fill="#6a83fc" transform="matrix(0.9994850496070005 0.03208793561592614 0.03208793561592614 -0.9994850496070005 1.524673522861145 -95.00648315248455)" font-size="20px" font-family="sans-serif">
    σ = 593.7925
</text>
	<text x="1423.6806953293753" y="-7.362626710259864" dx="0" dy="0" fill="#6a83fc" transform="matrix(0.9963762178629051 0.08505546706245691 0.08505546706245691 -0.9963762178629051 5.785340326309126 -135.79039935440844)" font-size="20px" font-family="sans-serif">
    σ = 594.0502
</text>
	<text x="619.8846623461177" y="266.3255513501383" dx="0" dy="0" fill="#fb877c" transform="matrix(0.9994532831619836 -0.0330625887784351 -0.0330625887784351 -0.9994532831619836 9.144313568012379 553.0004897181683)" font-size="20px" font-family="sans-serif">
    σ = -604.1242
</text>
	<text x="1012.4921586089578" y="267.5732058726998" dx="0" dy="0" fill="#fb877c" transform="matrix(0.9992187354181359 0.039521118270885974 0.039521118270885974 -0.9992187354181359 -9.783768052478768 494.9225439278662)" font-size="20px" font-family="sans-serif">
    σ = -729.1064
</text>
	<text x="405.2057700396443" y="113.338706530738" dx="0" dy="0" fill="#6a83fc" transform="matrix(0.04914843085158149 0.998791485618909 0.998791485618909 -0.04914843085158149 272.08880719622766 -285.8069469277787)" font-size="20px" font-family="sans-serif">
    σ = 0.0969
</text>
	<text x="806.0791481596133" y="101.09534250869831" dx="0" dy="0" fill="#fb877c" transform="matrix(0.0030527693883550967 0.9999953402886743 0.9999953402886743 -0.0030527693883550967 702.5235029779344 -704.6714287878631)" font-size="20px" font-family="sans-serif">
    σ = -333.333
</text>
	<text x="1205.4104412496995" y="114.93686936992961" dx="0" dy="0" fill="#6a83fc" transform="matrix(-0.04103528522925669 0.9991576979467023 0.9991576979467023 0.04103528522925669 1140.0347447158454 -1094.1747194079917)" font-size="20px" font-family="sans-serif">
    σ = 0.0675
</text>
	<text x="206.00569450631306" y="139.91497251301303" dx="0" dy="0" fill="#fb877c" transform="matrix(0.8491361401901943 0.5281740389520282 0.5281740389520282 -0.8491361401901943 -42.82064192603802 149.91497251301303)" font-size="20px" font-family="sans-serif">
    σ = -338.2421
</text>
	<text x="625.2992019546967" y="115.42761573851718" dx="0" dy="0" fill="#6a83fc" transform="matrix(0.7846597219998722 -0.6199267058863356 -0.6199267058863356 -0.7846597219998722 206.20876557527515 593.6386910761398)" font-size="20px" font-family="sans-serif">
    σ = 60.7893
</text>
	<text x="1006.2089052536688" y="116.65772316027235" dx="0" dy="0" fill="#6a83fc" transform="matrix(0.7826704641753875 0.6224362975497841 0.6224362975497841 -0.7826704641753875 146.06691303690368 -418.33866805194856)" font-size="20px" font-family="sans-serif">
    σ = 217.0464
</text>
	<text x="1423.7277743455784" y="141.1176910176921" dx="0" dy="0" fill="#fb877c" transform="matrix(0.8444079906581025 -0.5357006116411909 -0.5357006116411909 -0.8444079906581025 297.1174985578665 1022.9704364637302)" font-size="20px" font-family="sans-serif">
    σ = -494.5523
</text>
	<g >
    <circle cx="0.0" cy="0.0" r="5" stroke-width="4" stroke="#bc56d1" fill="#FFFFFF"/>

<text x="5.0" y="5.0" dx="0" dy="0" fill="#bc56d1" transform="matrix(1.0 0.0 0.0 -1.0 0.0 10.0)" font-size="20px" font-family="sans-serif">
    1
</text>
</g>
	<g >
    <circle cx="407.8125" cy="-37.15277777777783" r="5" stroke-width="4" stroke="#bc56d1" fill="#FFFFFF"/>

<text x="412.8125" y="-32.15277777777783" dx="0" dy="0" fill="#bc56d1" transform="matrix(1.0 0.0 0.0 -1.0 0.0 -64.30555555555566)" font-size="20px" font-family="sans-serif">
    2
</text>
</g>
	<g >
    <circle cx="815.625" cy="-47.685185185185254" r="5" stroke-width="4" stroke="#bc56d1" fill="#FFFFFF"/>

<text x="820.625" y="-42.685185185185254" dx="0" dy="0" fill="#bc56d1" transform="matrix(1.0 0.0 0.0 -1.0 0.0 -85.37037037037051)" font-size="20px" font-family="sans-serif">
    3
</text>
</g>
	<g >
    <circle cx="1221.5625" cy="-34.65277777777783" r="5" stroke-width="4" stroke="#bc56d1" fill="#FFFFFF"/>

<text x="1226.5625" y="-29.65277777777783" dx="0" dy="0" fill="#bc56d1" transform="matrix(1.0 0.0 0.0 -1.0 0.0 -59.30555555555566)" font-size="20px" font-family="sans-serif">
    4
</text>
</g>
	<g >
    <circle cx="1627.5" cy="0.0" r="5" stroke-width="4" stroke="#bc56d1" fill="#FFFFFF"/>

<text x="1632.5" y="5.0" dx="0" dy="0" fill="#bc56d1" transform="matrix(1.0 0.0 0.0 -1.0 0.0 10.0)" font-size="20px" font-family="sans-serif">
    5
</text>
</g>
	<g >
    <circle cx="422.5748697916667" cy="262.8472222222222" r="5" stroke-width="4" stroke="#bc56d1" fill="#FFFFFF"/>

<text x="427.5748697916667" y="267.8472222222222" dx="0" dy="0" fill="#bc56d1" transform="matrix(1.0 0.0 0.0 -1.0 0.0 535.6944444444443)" font-size="20px" font-family="sans-serif">
    6
</text>
</g>
	<g >
    <circle cx="816.533203125" cy="249.81481481481472" r="5" stroke-width="4" stroke="#bc56d1" fill="#FFFFFF"/>

<text x="821.533203125" y="254.81481481481472" dx="0" dy="0" fill="#bc56d1" transform="matrix(1.0 0.0 0.0 -1.0 0.0 509.62962962962945)" font-size="20px" font-family="sans-serif">
    7
</text>
</g>
	<g >
    <circle cx="1209.2415364583333" cy="265.3472222222222" r="5" stroke-width="4" stroke="#bc56d1" fill="#FFFFFF"/>

<text x="1214.2415364583333" y="270.3472222222222" dx="0" dy="0" fill="#bc56d1" transform="matrix(1.0 0.0 0.0 -1.0 0.0 540.6944444444443)" font-size="20px" font-family="sans-serif">
    8
</text>
</g>
	<g >
    <g stroke="#2d1757" stroke-width="4" fill="none">
    <line x1="150.26072565508446" y1="-121.79714186600297" x2="0.0" y2="0.0" />

<polyline points="-15.283681024997147,3.3777350882125425 0.0,0.0 -15.283681024997147,3.3777350882125425" />

</g>
<text x="143.96382531182095" y="-129.56560671222633" dx="0" dy="0" fill="#2d1757" transform="matrix(-0.7768464846223356 0.6296900343263495 0.6296900343263495 0.7768464846223356 337.38778825622916 -119.56560671222636)" font-size="20px" font-family="sans-serif">
    (-7513.04, 6089.86) with norm 9671.2
</text>
</g>
	<g >
    <g stroke="#2d1757" stroke-width="4" fill="none">
    <line x1="1627.2925771747318" y1="-178.04327315200754" x2="1627.5" y2="0.0" />

<polyline points="1620.51631492899,14.008145588512129 1627.5,0.0 1620.51631492899,14.008145588512129" />

</g>
<text x="1617.2925839610077" y="-178.03162302443837" dx="0" dy="0" fill="#2d1757" transform="matrix(0.0011650127569164098 0.9999993213724079 0.9999993213724079 -0.0011650127569164098 1793.4399196762938 -1795.5305185580319)" font-size="20px" font-family="sans-serif">
    (10.37, 8902.16) with norm 8902.17
</text>
</g>
	<g >
    <g >
    <g stroke="#62d156" stroke-width="4" fill="none">
    <line x1="372.5748697916667" y1="362.8472222222222" x2="422.5748697916667" y2="262.8472222222222" />

<polyline points="435.0968504656655,253.45573671672307 422.5748697916667,262.8472222222222 435.0968504656655,253.45573671672307" />

</g>
<text x="381.51914170166583" y="367.3193581772218" dx="0" dy="0" fill="#62d156" transform="matrix(0.44721359549995804 -0.8944271909999159 -0.8944271909999159 -0.44721359549995804 539.4390163235503 872.8306632693138)" font-size="20px" font-family="sans-serif">
    (2500.0, -5000.0) with norm 5590.17
</text>
</g>
</g>
	<g >
    <g >
    <g stroke="#62d156" stroke-width="4" fill="none">
    <line x1="766.533203125" y1="349.8148148148147" x2="816.533203125" y2="249.81481481481472" />

<polyline points="829.0551837989988,240.42332930931562 816.533203125,249.81481481481472 829.0551837989988,240.42332930931562" />

</g>
<text x="775.4774750349992" y="354.2869507698143" dx="0" dy="0" fill="#62d156" transform="matrix(0.44721359549995804 -0.8944271909999159 -0.8944271909999159 -0.44721359549995804 745.5572873803387 1206.3370315415614)" font-size="20px" font-family="sans-serif">
    (2500.0, -5000.0) with norm 5590.17
</text>
</g>
</g>
	<g >
    <g >
    <g stroke="#62d156" stroke-width="4" fill="none">
    <line x1="1159.2415364583333" y1="365.3472222222222" x2="1209.2415364583333" y2="265.3472222222222" />

<polyline points="1221.763517132332,255.95573671672307 1209.2415364583333,265.3472222222222 1221.763517132332,255.95573671672307" />

</g>
<text x="1168.1858083683323" y="369.8193581772218" dx="0" dy="0" fill="#62d156" transform="matrix(0.44721359549995804 -0.8944271909999159 -0.8944271909999159 -0.44721359549995804 976.5337225077496 1580.0647541779977)" font-size="20px" font-family="sans-serif">
    (2500.0, -5000.0) with norm 5590.17
</text>
</g>
</g>
</svg>
